<?xml version="1.0" encoding="utf-8"?>
<!-- Svg Vector Icons : http://www.onlinewebfonts.com/icon -->
<!DOCTYPE svg PUBLIC "-//W3C//DTD SVG 1.1//EN" "http://www.w3.org/Graphics/SVG/1.1/DTD/svg11.dtd">
<svg version="1.1" xmlns="http://www.w3.org/2000/svg" xmlns:xlink="http://www.w3.org/1999/xlink" x="0px" y="0px" viewBox="0 0 256 256" enable-background="new 0 0 256 256" xml:space="preserve">
<metadata> Svg Vector Icons : http://www.onlinewebfonts.com/icon </metadata>
<g><g><g><path fill="#000000" d="M119,10.3C69.1,14.1,26.4,49.7,13.8,98c-4.9,19-5.1,40.2-0.2,59.1c12.4,49.3,55.7,85.4,106.4,88.7c28.7,1.9,56.5-6.4,79.6-23.9c6.2-4.7,17.6-16.1,22.3-22.3C257,153,253.4,88.6,213.4,46.7C188.7,20.9,154.3,7.6,119,10.3z M143.5,35.1c25.4,4.1,48.4,18.9,62.9,40.6c18.7,28,21.1,64.4,6.1,94.2c-9.6,19-23.7,33.1-42.7,42.7c-26,13-57.5,13-83.5,0c-30.2-15.2-49.4-43.7-52.2-77.2c-3.8-46.9,28.1-89.6,74.2-99.5C119.7,33.4,131.6,33.1,143.5,35.1z"/><path fill="#000000" d="M114.7,66.6c-0.4,0.7-29,73.9-29,74.3c0,0.1,8.9,0.2,19.6,0.2c11.1,0,19.6,0.2,19.6,0.5c0,0.3-3,13-6.5,28.3c-3.6,15.3-6.5,28-6.4,28.1c0.2,0.2,55.7-82.2,55.7-82.7c0-0.2-8.1-0.4-18.1-0.5l-18.1-0.2l10.1-24.1c5.5-13.3,10.1-24.1,10.1-24.3C151.8,66,115,66.3,114.7,66.6z"/></g></g></g>
</svg>