<svg xmlns="http://www.w3.org/2000/svg" viewBox="0 0 24 24" fill="white">
<path d="M12 2.2c3.2 0 3.6 0 4.9.1 1.2.1 1.9.3 2.4.5.6.2 1 .5 1.4.9.4.4.7.8.9 1.4.2.5.4 1.2.5 2.4.1 1.3.1 1.7.1 4.9s0 3.6-.1 4.9c-.1 1.2-.3 1.9-.5 2.4-.2.6-.5 1-.9 1.4-.4.4-.8.7-1.4.9-.5.2-1.2.4-2.4.5-1.3.1-1.7.1-4.9.1s-3.6 0-4.9-.1c-1.2-.1-1.9-.3-2.4-.5-.6-.2-1-.5-1.4-.9-.4-.4-.7-.8-.9-1.4-.2-.5-.4-1.2-.5-2.4-.1-1.3-.1-1.7-.1-4.9s0-3.6.1-4.9c.1-1.2.3-1.9.5-2.4.2-.6.5-1 .9-1.4.4-.4.8-.7 1.4-.9.5-.2 1.2-.4 2.4-.5 1.3-.1 1.7-.1 4.9-.1zM12 7a5 5 0 1 0 0 10 5 5 0 0 0 0-10zm6.5-.8a1.2 1.2 0 1 0 0 2.4 1.2 1.2 0 0 0 0-2.4z"/>
</svg>