<?xml version="1.0" standalone="no"?>
<!DOCTYPE svg PUBLIC "-//W3C//DTD SVG 20010904//EN"
 "http://www.w3.org/TR/2001/REC-SVG-20010904/DTD/svg10.dtd">
<svg version="1.0" xmlns="http://www.w3.org/2000/svg"
 width="800.000000pt" height="800.000000pt" viewBox="0 0 800.000000 800.000000"
 preserveAspectRatio="xMidYMid meet">
<metadata>
Created by potrace 1.16, written by Peter Selinger 2001-2019
</metadata>
<g transform="translate(0.000000,800.000000) scale(0.100000,-0.100000)"
fill="#000000" stroke="none">
<path d="M3130 7234 c-504 -61 -979 -261 -1380 -580 -108 -86 -315 -293 -404
-404 -319 -398 -519 -877 -582 -1390 -21 -171 -15 -560 11 -720 139 -876 681
-1625 1455 -2011 403 -201 777 -289 1225 -289 426 0 806 87 1179 268 187 91
289 152 439 265 l109 80 831 -830 c458 -457 848 -839 867 -849 26 -14 57 -19
120 -19 74 0 91 3 131 27 46 27 89 79 108 131 20 53 13 148 -14 203 -19 38
-214 239 -850 874 -454 454 -825 827 -825 829 0 3 24 36 53 75 257 341 425
710 506 1112 68 334 68 743 0 1078 -163 810 -696 1510 -1429 1877 -407 203
-781 290 -1240 288 -107 -1 -247 -7 -310 -15z m617 -509 c620 -81 1200 -447
1545 -975 239 -365 358 -765 358 -1200 0 -306 -46 -548 -157 -825 -315 -783
-1071 -1328 -1908 -1373 -434 -24 -850 73 -1222 287 -315 180 -617 478 -800
788 -226 385 -324 792 -302 1250 26 513 251 1023 617 1397 344 352 802 586
1272 650 145 19 450 20 597 1z"/>
</g>
</svg>
