<?xml version="1.0" standalone="no"?>
<!DOCTYPE svg PUBLIC "-//W3C//DTD SVG 20010904//EN"
 "http://www.w3.org/TR/2001/REC-SVG-20010904/DTD/svg10.dtd">
<svg version="1.0" xmlns="http://www.w3.org/2000/svg"
 width="360.000000pt" height="360.000000pt" viewBox="0 0 360.000000 360.000000"
 preserveAspectRatio="xMidYMid meet">
<metadata>
Created by potrace 1.16, written by Peter Selinger 2001-2019
</metadata>
<g transform="translate(0.000000,360.000000) scale(0.100000,-0.100000)"
fill="#000000" stroke="none">
<path d="M1763 2923 c-70 -92 -246 -202 -378 -237 -161 -43 -397 -26 -573 42
-14 5 -15 -20 -9 -229 13 -441 49 -824 93 -998 45 -179 169 -397 307 -540 133
-137 326 -253 510 -305 l87 -25 88 25 c183 52 376 168 509 305 138 143 262
361 307 540 44 174 80 557 93 998 6 209 5 234 -9 229 -176 -68 -412 -85 -573
-42 -132 35 -308 145 -378 237 -15 20 -32 37 -37 37 -5 0 -22 -17 -37 -37z
m99 -259 c76 -56 219 -126 308 -149 78 -20 322 -31 397 -17 29 5 54 8 55 6 11
-10 -23 -527 -48 -724 -40 -325 -108 -486 -278 -667 -97 -103 -174 -159 -298
-218 -174 -82 -222 -82 -396 0 -124 59 -201 115 -298 218 -170 181 -238 342
-278 667 -25 197 -59 714 -48 724 1 2 26 -1 55 -6 74 -14 319 -3 397 17 85 22
252 104 315 154 28 22 51 40 52 40 2 1 31 -20 65 -45z"/>
<path d="M1739 2421 c-25 -26 -29 -37 -29 -85 0 -48 -3 -56 -18 -56 -40 0
-142 -62 -191 -116 -153 -167 -81 -407 147 -494 30 -11 96 -25 148 -30 141
-15 187 -41 204 -115 23 -104 -66 -185 -202 -185 -75 0 -129 23 -177 74 -41
43 -93 49 -129 16 -77 -72 11 -195 179 -249 35 -11 37 -14 41 -66 6 -72 35
-105 90 -105 59 0 88 34 88 103 l0 54 60 22 c76 28 136 74 177 135 108 160 48
371 -127 450 -41 19 -90 30 -158 37 -114 12 -188 42 -221 88 -39 55 -26 123
33 173 24 21 108 48 146 48 59 0 128 -30 173 -75 57 -56 94 -60 138 -16 44 45
40 80 -18 143 -46 49 -147 108 -185 108 -15 0 -18 9 -18 45 0 109 -84 162
-151 96z"/>
</g>
</svg>
