<?xml version="1.0" standalone="no"?>
<!DOCTYPE svg PUBLIC "-//W3C//DTD SVG 20010904//EN"
 "http://www.w3.org/TR/2001/REC-SVG-20010904/DTD/svg10.dtd">
<svg version="1.0" xmlns="http://www.w3.org/2000/svg"
 width="512.000000pt" height="512.000000pt" viewBox="0 0 512.000000 512.000000"
 preserveAspectRatio="xMidYMid meet">
<metadata>
Created by potrace 1.16, written by Peter Selinger 2001-2019
</metadata>
<g transform="translate(0.000000,512.000000) scale(0.100000,-0.100000)"
fill="#000000" stroke="none">
<path d="M2335 4994 c-156 -18 -224 -29 -307 -50 -494 -123 -921 -458 -1167
-914 -87 -163 -165 -402 -192 -589 -17 -120 -19 -121 -177 -121 -124 0 -131
-1 -190 -31 -149 -74 -248 -253 -287 -518 -23 -158 -17 -777 9 -866 46 -161
135 -279 255 -338 l66 -32 386 0 386 0 49 30 c30 19 60 49 79 79 l30 49 3 719
c2 715 2 719 -19 768 -36 83 -90 122 -202 145 -24 5 -27 10 -27 43 0 48 41
218 74 305 137 360 392 642 735 813 181 90 329 127 569 145 170 13 400 1 532
-27 511 -108 929 -480 1089 -970 41 -126 66 -243 60 -284 -3 -21 -11 -26 -50
-31 -59 -9 -99 -30 -136 -72 -66 -75 -64 -47 -61 -838 l3 -716 30 -49 c19 -30
49 -60 79 -79 45 -27 58 -30 154 -33 l104 -4 -5 -42 c-10 -72 -76 -276 -125
-386 -86 -193 -185 -321 -320 -410 -125 -84 -167 -93 -453 -98 l-247 -4 -18
28 c-45 67 -131 141 -188 163 -52 19 -76 21 -286 21 -278 0 -310 -8 -401 -99
-70 -70 -99 -140 -99 -241 0 -136 66 -242 188 -302 l67 -33 250 0 c241 0 252
1 296 23 61 30 122 83 150 130 13 20 28 40 33 44 6 4 112 8 236 8 290 0 394
17 535 88 293 146 515 488 630 972 15 63 31 120 36 127 6 7 59 12 147 15 131
3 140 4 203 35 83 41 169 130 209 215 61 130 63 152 68 527 4 360 -2 448 -39
596 -46 184 -153 337 -273 390 -50 22 -71 25 -174 25 -163 0 -163 0 -183 130
-95 598 -466 1103 -1003 1364 -199 97 -397 153 -625 176 -94 9 -414 12 -486 4z"/>
</g>
</svg>
