<svg xmlns="http://www.w3.org/2000/svg" viewBox="0 0 24 24" fill="white">
<path d="M22.46 6c-.77.35-1.6.58-2.46.69a4.3 4.3 0 0 0 1.88-2.37 8.59 8.59 0 0 1-2.72 1.04A4.28 4.28 0 0 0 11.5 8a12.14 12.14 0 0 1-8.82-4.47 4.28 4.28 0 0 0 1.33 5.71A4.23 4.23 0 0 1 2 8.6v.05a4.28 4.28 0 0 0 3.44 4.2 4.3 4.3 0 0 1-1.12.15c-.27 0-.54-.03-.8-.08a4.28 4.28 0 0 0 4 3 8.6 8.6 0 0 1-5.3 1.83c-.34 0-.68-.02-1.02-.06A12.13 12.13 0 0 0 7.29 20c7.55 0 11.68-6.26 11.68-11.68l-.01-.53A8.35 8.35 0 0 0 22.46 6z"/>
</svg>